<?xml version="1.0" encoding="UTF-8" standalone="no"?>
<!-- Created with Inkscape (http://www.inkscape.org/) -->

<svg
   xmlns:dc="http://purl.org/dc/elements/1.1/"
   xmlns:cc="http://creativecommons.org/ns#"
   xmlns:rdf="http://www.w3.org/1999/02/22-rdf-syntax-ns#"
   xmlns:svg="http://www.w3.org/2000/svg"
   xmlns="http://www.w3.org/2000/svg"
   xmlns:sodipodi="http://sodipodi.sourceforge.net/DTD/sodipodi-0.dtd"
   xmlns:inkscape="http://www.inkscape.org/namespaces/inkscape"
   id="svg3390"
   version="1.1"
   inkscape:version="0.91 r13725"
   width="562.5"
   height="562.5"
   viewBox="0 0 562.5 562.5"
   sodipodi:docname="drakkar.jpg.2017_03_14_16_29_49.0.svg">
  <metadata
     id="metadata3396">
    <rdf:RDF>
      <cc:Work
         rdf:about="">
        <dc:format>image/svg+xml</dc:format>
        <dc:type
           rdf:resource="http://purl.org/dc/dcmitype/StillImage" />
      </cc:Work>
    </rdf:RDF>
  </metadata>
  <defs
     id="defs3394" />
  <sodipodi:namedview
     pagecolor="#ffff"
     bordercolor="#FFF"
     borderopacity="1"
     objecttolerance="10"
     gridtolerance="10"
     guidetolerance="10"
     inkscape:pageopacity="0"
     inkscape:pageshadow="2"
     inkscape:window-width="1301"
     inkscape:window-height="744"
     id="namedview3392"
     showgrid="false"
     inkscape:object-nodes="true"
     inkscape:snap-page="false"
     showguides="true"
     inkscape:guide-bbox="true"
     inkscape:zoom="88.965006"
     inkscape:cx="240.48979"
     inkscape:cy="454.60776"
     inkscape:window-x="65"
     inkscape:window-y="24"
     inkscape:window-maximized="1"
     inkscape:current-layer="svg3390">
    <sodipodi:guide
       position="42.930966,543.21982"
       orientation="1,0"
       id="guide4290" />
    <sodipodi:guide
       position="22.324102,300.51676"
       orientation="1,0"
       id="guide4342" />
  </sodipodi:namedview>
  <path
     style="fill:none;fill-rule:evenodd;stroke:#FFFFFF;stroke-width:1px;stroke-linecap:butt;stroke-linejoin:miter;stroke-opacity:1"
     d="m 62.551483,263.64292 c 0,0 7.876853,33.82413 0.926688,61.16145 -6.950164,27.33731 -5.560131,49.11449 4.170099,82.93863 9.730231,33.82413 38.45758,71.81837 81.08526,88.96211 42.62767,17.14374 221.01523,1.39003 221.01523,1.39003 0,0 46.79778,-10.65692 64.86821,-54.21129 18.07043,-43.55436 15.75371,-67.64827 14.82702,-100.54571 -0.92669,-32.89745 -10.19358,-71.35503 -10.19358,-83.86532 0,-12.5103 -17.14374,-25.0206 9.73023,-35.67752"
     id="path3402"
     inkscape:connector-curvature="0" />
  <path
     style="fill:none;fill-rule:evenodd;stroke:#FFFFFF;stroke-width:1px;stroke-linecap:butt;stroke-linejoin:miter;stroke-opacity:1"
     d="m 62.551483,263.64292 c 0,0 -18.475691,-0.51486 -17.330866,-19.40448 1.144826,-18.88963 26.903406,-17.17239 30.337883,-13.1655 3.434477,4.00689 17.744799,12.02067 12.593083,28.62065 -5.151716,16.59997 9.158607,92.73087 26.330997,112.19292 1.32318,1.49961 2.83886,2.87064 4.50953,4.12401 m 33.14778,11.51156 c 15.45879,2.23666 29.11079,1.63282 29.11079,1.63282 l 0,0 m 39.4995,-0.8964 49.37163,-1.03577 m 35.75262,-0.75005 40.43536,-0.8483 m 31.14013,-6.35937 c 12.48183,-5.68537 24.87849,-16.40321 28.96322,-36.5716"
     id="path3404"
     inkscape:connector-curvature="0"
     sodipodi:nodetypes="csssscccccccccc" />
  <path
     style="fill:none;fill-rule:evenodd;stroke:#FFFFFF;stroke-width:1px;stroke-linecap:butt;stroke-linejoin:miter;stroke-opacity:1"
     d="m 448.98064,223.7953 c 0,0 -4.21583,17.58108 7.80484,18.15349 12.02067,0.57241 28.04823,1.71724 32.05512,-0.57241 4.00689,-2.28966 9.1586,-21.17928 -0.57241,-14.88274 -9.73102,6.29654 -16.02757,8.01378 -20.03446,2.86206 -4.00689,-5.15171 -5.15171,-24.61375 1.71724,-26.33099 6.86896,-1.71724 33.19995,-2.28965 35.4896,1.14483 2.28965,3.43448 0.57241,21.17927 8.58619,4.00689"
     id="path3431"
     inkscape:connector-curvature="0" />
  <path
     style="fill:none;fill-rule:evenodd;stroke:#FFFFFF;stroke-width:1px;stroke-linecap:butt;stroke-linejoin:miter;stroke-opacity:1"
     d="m 514.02676,208.17643 c 0,0 12.02068,-25.18617 -7.44136,-30.9103 -19.46204,-5.72413 -46.93786,-2.86206 -46.93786,-2.86206 0,0 -3.43448,-14.88274 0,-18.31721 3.43448,-3.43448 -29.19306,5.15171 -36.06201,32.05512"
     id="path3433"
     inkscape:connector-curvature="0" />
  <path
     style="fill:none;fill-rule:evenodd;stroke:#FFFFFF;stroke-width:1px;stroke-linecap:butt;stroke-linejoin:miter;stroke-opacity:1"
     d="m 406.41314,342.69345 c 0,0 6.86896,-20.60686 2.28966,-88.15158 -4.57931,-67.54472 14.88273,-66.39989 14.88273,-66.39989"
     id="path3459"
     inkscape:connector-curvature="0" />
  <ellipse
     style="fill:none;stroke-width:1;stroke-miterlimit:4;stroke-dasharray:none"
     id="path3466"
     cx="148.54114"
     cy="405.94507"
     rx="18.031006"
     ry="24.327547" />
  <ellipse
     style="fill:none;stroke:#FFFFFF;stroke-width:1;stroke-miterlimit:4;stroke-dasharray:none;stroke-opacity:1"
     id="path4270"
     cx="131.94116"
     cy="393.35199"
     rx="20.89307"
     ry="21.465483" />
  <ellipse
     style="fill:none;stroke:#FFFFFF;stroke-width:1;stroke-miterlimit:4;stroke-dasharray:none;stroke-opacity:1"
     id="path4272"
     cx="201.48933"
     cy="401.07956"
     rx="22.896515"
     ry="24.613754" />
  <ellipse
     style="fill:none;stroke:#FFFFFF;stroke-width:1;stroke-miterlimit:4;stroke-dasharray:none;stroke-opacity:1"
     id="path4274"
     cx="288.20987"
     cy="400.79337"
     rx="23.182722"
     ry="22.037895" />
  <ellipse
     style="fill:none;stroke:#FFFFFF;stroke-width:1;stroke-miterlimit:4;stroke-dasharray:none;stroke-opacity:1"
     id="path4284"
     cx="365.48563"
     cy="396.21405"
     rx="22.61031"
     ry="19.748245" />
  <path
     style="fill:none;fill-rule:evenodd;stroke:#FFFFFF;stroke-width:1px;stroke-linecap:butt;stroke-linejoin:miter;stroke-opacity:1"
     d="m 236.40652,387.34166 0,-331.427057 9.1586,0 0,331.999467"
     id="path4286"
     inkscape:connector-curvature="0" />
  <path
     style="fill:none;fill-rule:evenodd;stroke:#FFFFFF;stroke-width:1px;stroke-linecap:butt;stroke-linejoin:miter;stroke-opacity:1"
     d="m 236.5728,112.66462 -179.903925,41.705 -1.717239,-4.57931 181.527904,-42.29243 m 9.07664,-2.11468 187.76037,-43.744468 1.14482,5.151715 -188.85875,43.780893"
     id="path4288"
     inkscape:connector-curvature="0"
     sodipodi:nodetypes="cccccccc" />
</svg>
